<?xml version="1.0" encoding="UTF-8" standalone="no"?>
<!DOCTYPE svg PUBLIC "-//W3C//DTD SVG 1.1//EN" "http://www.w3.org/Graphics/SVG/1.1/DTD/svg11.dtd">
<svg width="100%" height="100%" viewBox="0 0 200 200" version="1.1" xmlns="http://www.w3.org/2000/svg" xmlns:xlink="http://www.w3.org/1999/xlink" xml:space="preserve" xmlns:serif="http://www.serif.com/" style="fill-rule:evenodd;clip-rule:evenodd;stroke-linecap:round;stroke-linejoin:round;stroke-miterlimit:1.5;">
    <path d="M160,100L72,18L16,100L100,190L160Z" style="fill:white;stroke:black;stroke-width:3px;"/>
    <path d="M158.5,103L78,18L22,100L101.5,188.5Z" style="fill:white;stroke:black;stroke-width:0.5px;"/>
    <path d="M158.5,103L84,16L28,100L101.5,188.5Z" style="fill:white;stroke:black;stroke-width:0.5px;"/>
    <path d="M158.5,103L90,14L34,100L101.5,187.5Z" style="fill:white;stroke:black;stroke-width:0.5px;"/>
    <path d="M130,55C100,10 40,70 100,100C160,130 100,190 70,145L40,100L100,10L130,55Z" style="fill:rgb(52,73,94);stroke:black;stroke-width:3px;"/>
    <path d="M130,55C100,10 40,70 100,100C160,130 100,190 70,145L100,190L160,100L130,55Z" style="fill:rgb(65,184,131);stroke:black;stroke-width:3px;"/>
</svg>
